<svg width="2420" height="130" viewBox="0 0 2420 130" fill="none" xmlns="http://www.w3.org/2000/svg">
<g filter="url(#filter0_d)">
<path d="M10 8H2410V81.3233C2410 81.3233 1695.59 117.138 1230.83 117.985C750.74 118.86 10 81.3233 10 81.3233V8Z" fill="#730000"/>
<path d="M12 10H2408V79.4204L2407.84 79.4285C2406.47 79.4963 2404.44 79.5969 2401.77 79.7281C2396.42 79.9906 2388.52 80.3757 2378.3 80.8661C2357.86 81.847 2328.14 83.2493 2291.02 84.9346C2216.79 88.3053 2112.97 92.8084 1994.62 97.3379C1757.93 106.397 1463.17 115.561 1230.83 115.985C990.825 116.422 685.649 107.258 440.457 97.9837C317.865 93.3465 210.275 88.682 133.333 85.1768C94.8623 83.4242 64.0536 81.9614 42.863 80.9368C32.2677 80.4245 24.0769 80.0218 18.5351 79.7471C15.7642 79.6097 13.6555 79.5044 12.2397 79.4335L12 79.4214V10Z" stroke="url(#paint0_radial)" stroke-width="4"/>
</g>
<defs>
<filter id="filter0_d" x="0" y="0" width="2420" height="130" filterUnits="userSpaceOnUse" color-interpolation-filters="sRGB">
<feFlood flood-opacity="0" result="BackgroundImageFix"/>
<feColorMatrix in="SourceAlpha" type="matrix" values="0 0 0 0 0 0 0 0 0 0 0 0 0 0 0 0 0 0 127 0"/>
<feOffset dy="2"/>
<feGaussianBlur stdDeviation="5"/>
<feColorMatrix type="matrix" values="0 0 0 0 0 0 0 0 0 0 0 0 0 0 0 0 0 0 1 0"/>
<feBlend mode="normal" in2="BackgroundImageFix" result="effect1_dropShadow"/>
<feBlend mode="normal" in="SourceGraphic" in2="effect1_dropShadow" result="shape"/>
</filter>
<radialGradient id="paint0_radial" cx="0" cy="0" r="1" gradientUnits="userSpaceOnUse" gradientTransform="translate(1210 287) rotate(-89.9999) scale(354 7723.64)">
<stop stop-color="#FBFCDE" stop-opacity="0"/>
<stop offset="0.293726" stop-color="#FBFCDE"/>
<stop offset="0.619552" stop-color="#C5B61D"/>
<stop offset="1"/>
</radialGradient>
</defs>
</svg>
